<mxfile host="app.diagrams.net" agent="Mozilla/5.0 (Windows NT 10.0; Win64; x64) AppleWebKit/537.36 (KHTML, like Gecko) Chrome/127.0.0.0 Safari/537.36" version="24.7.7">
  <diagram name="第 1 页" id="INTHivjXrk4NH2DzHwaz">
    <mxGraphModel dx="1185" dy="647" grid="0" gridSize="10" guides="1" tooltips="1" connect="1" arrows="1" fold="1" page="1" pageScale="1" pageWidth="827" pageHeight="1169" math="0" shadow="0">
      <root>
        <mxCell id="0" />
        <mxCell id="1" parent="0" />
        <mxCell id="4M0rsQw-Jr7azIdfLvdO-3" style="edgeStyle=orthogonalEdgeStyle;rounded=0;orthogonalLoop=1;jettySize=auto;html=1;exitX=0.5;exitY=1;exitDx=0;exitDy=0;" edge="1" parent="1" source="4M0rsQw-Jr7azIdfLvdO-2" target="4M0rsQw-Jr7azIdfLvdO-4">
          <mxGeometry relative="1" as="geometry">
            <mxPoint x="380.0952380952381" y="223.85714285714278" as="targetPoint" />
          </mxGeometry>
        </mxCell>
        <mxCell id="4M0rsQw-Jr7azIdfLvdO-5" style="edgeStyle=orthogonalEdgeStyle;rounded=0;orthogonalLoop=1;jettySize=auto;html=1;exitX=1;exitY=0.5;exitDx=0;exitDy=0;" edge="1" parent="1" source="4M0rsQw-Jr7azIdfLvdO-2" target="4M0rsQw-Jr7azIdfLvdO-6">
          <mxGeometry relative="1" as="geometry">
            <mxPoint x="488.6666666666665" y="148.1428571428571" as="targetPoint" />
          </mxGeometry>
        </mxCell>
        <mxCell id="4M0rsQw-Jr7azIdfLvdO-2" value="" style="rounded=0;whiteSpace=wrap;html=1;" vertex="1" parent="1">
          <mxGeometry x="320" y="124" width="120" height="48" as="geometry" />
        </mxCell>
        <mxCell id="4M0rsQw-Jr7azIdfLvdO-4" value="" style="rounded=0;whiteSpace=wrap;html=1;" vertex="1" parent="1">
          <mxGeometry x="319.99523809523805" y="372.99714285714276" width="120" height="60" as="geometry" />
        </mxCell>
        <mxCell id="4M0rsQw-Jr7azIdfLvdO-6" value="" style="rounded=0;whiteSpace=wrap;html=1;" vertex="1" parent="1">
          <mxGeometry x="615.9966666666664" y="124.00285714285711" width="120" height="60" as="geometry" />
        </mxCell>
      </root>
    </mxGraphModel>
  </diagram>
</mxfile>
